REM DIRINDEX 1\2,1\3,1\4,1\5,1\6,1\7,1\8
REM DIRNAME cjc152,folder01,folder02,folder03,folder04,folder05,folder06,folder07
TITLE ""
FILE "37_Ch8_FavoriteThingstoDo_Behavier.mp3" MP3
  TRACK 01 AUDIO
    TITLE "0:"
    INDEX 01 00:00:00
  TRACK 02 AUDIO
    TITLE "8:cjc152_2019"
    INDEX 01 00:00:31
  TRACK 03 AUDIO
    TITLE "0:"
    INDEX 01 00:03:41
  TRACK 04 AUDIO
    TITLE "8:cjc152_2020"
    INDEX 01 00:04:13
  TRACK 05 AUDIO
    TITLE "0:"
    INDEX 01 00:05:54
  TRACK 06 AUDIO
    TITLE "3:cjc152_2021"
    INDEX 01 00:06:47
  TRACK 07 AUDIO
    TITLE "0:"
    INDEX 01 00:08:11
  TRACK 08 AUDIO
    TITLE "3:cjc152_2022"
    INDEX 01 00:09:12
  TRACK 09 AUDIO
    TITLE "0:"
    INDEX 01 00:11:21
  TRACK 10 AUDIO
    TITLE "3:cjc152_2023"
    INDEX 01 00:13:14
  TRACK 11 AUDIO
    TITLE "0:"
    INDEX 01 00:14:51
  TRACK 12 AUDIO
    TITLE "3:cjc152_2024"
    INDEX 01 00:15:44
  TRACK 13 AUDIO
    TITLE "0:"
    INDEX 01 00:17:47
  TRACK 14 AUDIO
    TITLE "3:cjc152_2025"
    INDEX 01 00:19:40
  TRACK 15 AUDIO
    TITLE "0:"
    INDEX 01 00:22:60
  TRACK 16 AUDIO
    TITLE "3:cjc152_2026"
    INDEX 01 00:23:51
  TRACK 17 AUDIO
    TITLE "0:"
    INDEX 01 00:26:36
  TRACK 18 AUDIO
    TITLE "3:cjc152_2027"
    INDEX 01 00:28:31
  TRACK 19 AUDIO
    TITLE "0:"
    INDEX 01 00:30:54
  TRACK 20 AUDIO
    TITLE "3:cjc152_2028"
    INDEX 01 00:31:43
  TRACK 21 AUDIO
    TITLE "0:"
    INDEX 01 00:35:19
  TRACK 22 AUDIO
    TITLE "3:cjc152_2029"
    INDEX 01 00:37:12
  TRACK 23 AUDIO
    TITLE "0:"
    INDEX 01 00:39:11
  TRACK 24 AUDIO
    TITLE "3:cjc152_2030"
    INDEX 01 00:40:13
  TRACK 25 AUDIO
    TITLE "0:"
    INDEX 01 00:42:10
  TRACK 26 AUDIO
    TITLE "3:cjc152_2031"
    INDEX 01 00:44:03
  TRACK 27 AUDIO
    TITLE "0:"
    INDEX 01 00:46:09
  TRACK 28 AUDIO
    TITLE "3:cjc152_2032"
    INDEX 01 00:47:03
  TRACK 29 AUDIO
    TITLE "0:"
    INDEX 01 00:49:31
  TRACK 30 AUDIO
    TITLE "3:cjc152_2033"
    INDEX 01 00:51:24
  TRACK 31 AUDIO
    TITLE "0:"
    INDEX 01 00:53:53
  TRACK 32 AUDIO
    TITLE "3:cjc152_2034"
    INDEX 01 00:54:44
  TRACK 33 AUDIO
    TITLE "0:"
    INDEX 01 00:57:37
  TRACK 34 AUDIO
    TITLE "3:cjc152_2035"
    INDEX 01 00:59:28
  TRACK 35 AUDIO
    TITLE "0:"
    INDEX 01 01:01:62
  TRACK 36 AUDIO
    TITLE "3:cjc152_2036"
    INDEX 01 01:02:55
  TRACK 37 AUDIO
    TITLE "0:"
    INDEX 01 01:06:49
  TRACK 38 AUDIO
    TITLE "3:cjc152_2037"
    INDEX 01 01:08:42
  TRACK 39 AUDIO
    TITLE "0:"
    INDEX 01 01:10:73
  TRACK 40 AUDIO
    TITLE "3:cjc152_2038"
    INDEX 01 01:11:64
  TRACK 41 AUDIO
    TITLE "0:"
    INDEX 01 01:14:35
  TRACK 42 AUDIO
    TITLE "3:cjc152_2039"
    INDEX 01 01:16:28
  TRACK 43 AUDIO
    TITLE "0:"
    INDEX 01 01:18:06
  TRACK 44 AUDIO
    TITLE "3:cjc152_2040"
    INDEX 01 01:18:72
  TRACK 45 AUDIO
    TITLE "0:"
    INDEX 01 01:20:71
  TRACK 46 AUDIO
    TITLE "3:cjc152_2041"
    INDEX 01 01:22:64
  TRACK 47 AUDIO
    TITLE "0:"
    INDEX 01 01:24:71
  TRACK 48 AUDIO
    TITLE "3:cjc152_2042"
    INDEX 01 01:25:64
  TRACK 49 AUDIO
    TITLE "0:"
    INDEX 01 01:28:43
  TRACK 50 AUDIO
    TITLE "3:cjc152_2043"
    INDEX 01 01:30:36
  TRACK 51 AUDIO
    TITLE "0:"
    INDEX 01 01:32:68
  TRACK 52 AUDIO
    TITLE "3:cjc152_2044"
    INDEX 01 01:33:62
  TRACK 53 AUDIO
    TITLE "0:"
    INDEX 01 01:37:22
  TRACK 54 AUDIO
    TITLE "3:cjc152_2045"
    INDEX 01 01:39:15
  TRACK 55 AUDIO
    TITLE "0:"
    INDEX 01 01:41:59
  TRACK 56 AUDIO
    TITLE "3:cjc152_2046"
    INDEX 01 01:42:53
  TRACK 57 AUDIO
    TITLE "0:"
    INDEX 01 01:45:57
  TRACK 58 AUDIO
    TITLE "3:cjc152_2047"
    INDEX 01 01:47:50
  TRACK 59 AUDIO
    TITLE "0:"
    INDEX 01 01:49:51
  TRACK 60 AUDIO
    TITLE "3:cjc152_2048"
    INDEX 01 01:50:53
  TRACK 61 AUDIO
    TITLE "0:"
    INDEX 01 01:52:34
  TRACK 62 AUDIO
    TITLE "3:cjc152_2049"
    INDEX 01 01:54:27
  TRACK 63 AUDIO
    TITLE "0:"
    INDEX 01 01:56:49
  TRACK 64 AUDIO
    TITLE "3:cjc152_2050"
    INDEX 01 01:57:43
  TRACK 65 AUDIO
    TITLE "0:"
    INDEX 01 02:00:04
  TRACK 66 AUDIO
    TITLE "3:cjc152_2051"
    INDEX 01 02:01:72
  TRACK 67 AUDIO
    TITLE "0:"
    INDEX 01 02:03:69
  TRACK 68 AUDIO
    TITLE "3:cjc152_2052"
    INDEX 01 02:04:60
  TRACK 69 AUDIO
    TITLE "0:"
    INDEX 01 02:06:61
  TRACK 70 AUDIO
    TITLE "3:cjc152_2053"
    INDEX 01 02:09:09
  TRACK 71 AUDIO
    TITLE "0:"
    INDEX 01 02:11:74
  TRACK 72 AUDIO
    TITLE "3:cjc152_2054"
    INDEX 01 02:12:68
  TRACK 73 AUDIO
    TITLE "0:"
    INDEX 01 02:16:38
  TRACK 74 AUDIO
    TITLE "3:cjc152_2055"
    INDEX 01 02:18:31
  TRACK 75 AUDIO
    TITLE "0:"
    INDEX 01 02:20:60
  TRACK 76 AUDIO
    TITLE "3:cjc152_2056"
    INDEX 01 02:21:51
  TRACK 77 AUDIO
    TITLE "0:"
    INDEX 01 02:24:30
  TRACK 78 AUDIO
    TITLE "3:cjc152_2057"
    INDEX 01 02:26:25
  TRACK 79 AUDIO
    TITLE "0:"
    INDEX 01 02:28:18
  TRACK 80 AUDIO
    TITLE "3:cjc152_2058"
    INDEX 01 02:29:09
  TRACK 81 AUDIO
    TITLE "0:"
    INDEX 01 02:30:62
  TRACK 82 AUDIO
    TITLE "3:cjc152_2059"
    INDEX 01 02:32:57
  TRACK 83 AUDIO
    TITLE "0:"
    INDEX 01 02:34:24
  TRACK 84 AUDIO
    TITLE "3:cjc152_2060"
    INDEX 01 02:35:18
  TRACK 85 AUDIO
    TITLE "0:"
    INDEX 01 02:36:59
  TRACK 86 AUDIO
    TITLE "3:cjc152_2061"
    INDEX 01 02:38:54
  TRACK 87 AUDIO
    TITLE "0:"
    INDEX 01 02:40:39
  TRACK 88 AUDIO
    TITLE "3:cjc152_2062"
    INDEX 01 02:41:30
  TRACK 89 AUDIO
    TITLE "0:"
    INDEX 01 02:43:21
  TRACK 90 AUDIO
    TITLE "3:cjc152_2063"
    INDEX 01 02:45:14
  TRACK 91 AUDIO
    TITLE "0:"
    INDEX 01 02:48:01
  TRACK 92 AUDIO
    TITLE "3:cjc152_2064"
    INDEX 01 02:48:70
  TRACK 93 AUDIO
    TITLE "0:"
    INDEX 01 02:52:56
  TRACK 94 AUDIO
    TITLE "3:cjc152_2065"
    INDEX 01 02:54:47
  TRACK 95 AUDIO
    TITLE "0:"
    INDEX 01 02:56:26
  TRACK 96 AUDIO
    TITLE "3:cjc152_2066"
    INDEX 01 02:57:20
  TRACK 97 AUDIO
    TITLE "0:"
    INDEX 01 02:58:66
  TRACK 98 AUDIO
    TITLE "3:cjc152_2067"
    INDEX 01 03:00:59
  TRACK 99 AUDIO
    TITLE "0:"
    INDEX 01 03:02:62
  TRACK 100 AUDIO
    TITLE "3:cjc152_2068"
    INDEX 01 03:03:55
  TRACK 101 AUDIO
    TITLE "0:"
    INDEX 01 03:05:21
  TRACK 102 AUDIO
    TITLE "3:cjc152_2069"
    INDEX 01 03:07:06
  TRACK 103 AUDIO
    TITLE "0:"
    INDEX 01 03:10:05
  TRACK 104 AUDIO
    TITLE "3:cjc152_2070"
    INDEX 01 03:11:04
  TRACK 105 AUDIO
    TITLE "0:"
    INDEX 01 03:14:59
  TRACK 106 AUDIO
    TITLE "3:cjc152_2071"
    INDEX 01 03:16:64
  TRACK 107 AUDIO
    TITLE "0:"
    INDEX 01 03:18:41
  TRACK 108 AUDIO
    TITLE "3:cjc152_2072"
    INDEX 01 03:19:51
  TRACK 109 AUDIO
    TITLE "0:"
    INDEX 01 03:21:44
  TRACK 110 AUDIO
    TITLE "3:cjc152_2073"
    INDEX 01 03:23:37
  TRACK 111 AUDIO
    TITLE "0:"
    INDEX 01 03:25:30
  TRACK 112 AUDIO
    TITLE "3:cjc152_2074"
    INDEX 01 03:26:51
  TRACK 113 AUDIO
    TITLE "0:"
    INDEX 01 03:28:59
  TRACK 114 AUDIO
    TITLE "3:cjc152_2075"
    INDEX 01 03:30:50
  TRACK 115 AUDIO
    TITLE "0:"
    INDEX 01 03:32:16
  TRACK 116 AUDIO
    TITLE "3:cjc152_2076"
    INDEX 01 03:33:09
  TRACK 117 AUDIO
    TITLE "0:"
    INDEX 01 03:34:62
  TRACK 118 AUDIO
    TITLE "3:cjc152_2077"
    INDEX 01 03:36:53
  TRACK 119 AUDIO
    TITLE "0:"
    INDEX 01 03:38:58
  TRACK 120 AUDIO
    TITLE "3:cjc152_2078"
    INDEX 01 03:39:51
  TRACK 121 AUDIO
    TITLE "0:"
    INDEX 01 03:42:48
  TRACK 122 AUDIO
    TITLE "3:cjc152_2079"
    INDEX 01 03:44:43
  TRACK 123 AUDIO
    TITLE "0:"
    INDEX 01 03:46:14
  TRACK 124 AUDIO
    TITLE "3:cjc152_2080"
    INDEX 01 03:47:06
  TRACK 125 AUDIO
    TITLE "0:"
    INDEX 01 03:48:68
  TRACK 126 AUDIO
    TITLE "3:cjc152_2081"
    INDEX 01 03:50:61
  TRACK 127 AUDIO
    TITLE "0:"
    INDEX 01 03:52:40
  TRACK 128 AUDIO
    TITLE "3:cjc152_2082"
    INDEX 01 03:53:34
  TRACK 129 AUDIO
    TITLE "0:"
    INDEX 01 03:55:23
  TRACK 130 AUDIO
    TITLE "3:cjc152_2083"
    INDEX 01 03:57:16
  TRACK 131 AUDIO
    TITLE "0:"
    INDEX 01 03:58:56
  TRACK 132 AUDIO
    TITLE "3:cjc152_2084"
    INDEX 01 03:59:48
  TRACK 133 AUDIO
    TITLE "0:"
    INDEX 01 04:01:55
  TRACK 134 AUDIO
    TITLE "3:cjc152_2085"
    INDEX 01 04:03:48
  TRACK 135 AUDIO
    TITLE "0:"
    INDEX 01 04:05:19
  TRACK 136 AUDIO
    TITLE "3:cjc152_2086"
    INDEX 01 04:06:13
  TRACK 137 AUDIO
    TITLE "0:"
    INDEX 01 04:07:63
